<mxfile host="65bd71144e">
    <diagram id="7hii3K4OZV7KvUmnA_V6" name="Page-1">
        <mxGraphModel dx="957" dy="541" grid="0" gridSize="10" guides="1" tooltips="1" connect="1" arrows="1" fold="1" page="1" pageScale="1" pageWidth="827" pageHeight="1169" math="0" shadow="0">
            <root>
                <mxCell id="0"/>
                <mxCell id="1" parent="0"/>
                <mxCell id="4" value="" style="edgeStyle=none;html=1;" parent="1" source="2" target="3" edge="1">
                    <mxGeometry relative="1" as="geometry"/>
                </mxCell>
                <mxCell id="2" value="НАЧАЛО" style="ellipse;whiteSpace=wrap;html=1;" parent="1" vertex="1">
                    <mxGeometry x="354" y="30" width="120" height="80" as="geometry"/>
                </mxCell>
                <mxCell id="6" style="edgeStyle=none;html=1;entryX=0.5;entryY=0;entryDx=0;entryDy=0;" parent="1" source="3" target="5" edge="1">
                    <mxGeometry relative="1" as="geometry"/>
                </mxCell>
                <mxCell id="3" value="arrayInput, resultArray, symbolCount,&lt;br&gt;len = Size(arrayInput),&lt;br&gt;index = 0,&lt;br&gt;count = 0" style="whiteSpace=wrap;html=1;" parent="1" vertex="1">
                    <mxGeometry x="328" y="140" width="172" height="80" as="geometry"/>
                </mxCell>
                <mxCell id="8" value="true" style="edgeStyle=none;html=1;" parent="1" source="5" target="7" edge="1">
                    <mxGeometry y="16" relative="1" as="geometry">
                        <mxPoint as="offset"/>
                    </mxGeometry>
                </mxCell>
                <mxCell id="5" value="index &amp;lt; len" style="rhombus;whiteSpace=wrap;html=1;" parent="1" vertex="1">
                    <mxGeometry x="326" y="260" width="176" height="140" as="geometry"/>
                </mxCell>
                <mxCell id="10" value="true" style="edgeStyle=none;html=1;exitX=0.5;exitY=1;exitDx=0;exitDy=0;" parent="1" source="7" target="9" edge="1">
                    <mxGeometry x="-0.6711" y="16" relative="1" as="geometry">
                        <mxPoint x="414" y="620" as="sourcePoint"/>
                        <Array as="points">
                            <mxPoint x="414" y="720"/>
                        </Array>
                        <mxPoint as="offset"/>
                    </mxGeometry>
                </mxCell>
                <mxCell id="12" value="false" style="edgeStyle=none;html=1;" parent="1" source="7" target="11" edge="1">
                    <mxGeometry relative="1" as="geometry"/>
                </mxCell>
                <mxCell id="7" value="Length(arrayInput[index]) &amp;lt;=symbolsCount" style="rhombus;whiteSpace=wrap;html=1;" parent="1" vertex="1">
                    <mxGeometry x="324" y="462.25" width="179" height="140" as="geometry"/>
                </mxCell>
                <mxCell id="14" value="" style="edgeStyle=none;html=1;entryX=0.5;entryY=1;entryDx=0;entryDy=0;" parent="1" source="9" target="11" edge="1">
                    <mxGeometry relative="1" as="geometry">
                        <mxPoint x="150" y="610" as="targetPoint"/>
                    </mxGeometry>
                </mxCell>
                <mxCell id="9" value="&lt;span&gt;resultArray[count] =&amp;nbsp;&lt;/span&gt;arrayInput[index],&lt;br&gt;count += 1" style="whiteSpace=wrap;html=1;" parent="1" vertex="1">
                    <mxGeometry x="90" y="690" width="120" height="60" as="geometry"/>
                </mxCell>
                <mxCell id="15" style="edgeStyle=none;html=1;entryX=0;entryY=0.5;entryDx=0;entryDy=0;" parent="1" source="11" target="5" edge="1">
                    <mxGeometry relative="1" as="geometry">
                        <Array as="points">
                            <mxPoint x="150" y="330"/>
                        </Array>
                    </mxGeometry>
                </mxCell>
                <mxCell id="11" value="index += 1" style="whiteSpace=wrap;html=1;" parent="1" vertex="1">
                    <mxGeometry x="90" y="502.25" width="120" height="60" as="geometry"/>
                </mxCell>
                <mxCell id="18" value="КОНЕЦ" style="ellipse;whiteSpace=wrap;html=1;" parent="1" vertex="1">
                    <mxGeometry x="354" y="970" width="120" height="60" as="geometry"/>
                </mxCell>
                <mxCell id="16" value="false" style="edgeStyle=none;html=1;exitX=1;exitY=0.5;exitDx=0;exitDy=0;entryX=0.5;entryY=0;entryDx=0;entryDy=0;labelBorderColor=none;" parent="1" source="5" edge="1" target="18">
                    <mxGeometry x="-0.8173" y="10" relative="1" as="geometry">
                        <mxPoint x="474" y="840" as="targetPoint"/>
                        <Array as="points">
                            <mxPoint x="660" y="330"/>
                            <mxPoint x="660" y="840"/>
                            <mxPoint x="414" y="840"/>
                        </Array>
                        <mxPoint as="offset"/>
                    </mxGeometry>
                </mxCell>
            </root>
        </mxGraphModel>
    </diagram>
</mxfile>